<?xml version="1.0" encoding="UTF-8"?>
<svg id="_圖層_4" xmlns="http://www.w3.org/2000/svg" version="1.1" viewBox="0 0 595.28 453.33">
  <!-- Generator: Adobe Illustrator 30.0.0, SVG Export Plug-In . SVG Version: 2.1.1 Build 123)  -->
  <defs>
    <style>
      .st0, .st1, .st2, .st3, .st4, .st5, .st6 {
        isolation: isolate;
      }

      .st0, .st1, .st2, .st3, .st4, .st6 {
        opacity: .25;
      }

      .st0, .st7 {
        fill: #ff1add;
      }

      .st1, .st8 {
        fill: #1a98ff;
      }

      .st9 {
        fill: #a3a1a0;
      }

      .st2, .st10 {
        fill: #1affec;
      }

      .st11 {
        fill: #443122;
      }

      .st11, .st12, .st3, .st4, .st6 {
        fill-rule: evenodd;
      }

      .st12, .st13 {
        fill: red;
      }

      .st3, .st14 {
        fill: #fff;
      }

      .st15, .st4 {
        fill: #ffc21a;
      }

      .st16 {
        fill: none;
      }

      .st16, .st17 {
        stroke: #a3a1a0;
        stroke-miterlimit: 10;
        stroke-width: 2px;
      }

      .st6, .st18 {
        fill: #fffb1a;
      }

      .st17 {
        fill: #333;
      }
    </style>
  </defs>
  <path class="st17" d="M553.41,397.49l-76.75-.2v33.5h-79.27v-33.7l-114.95-.3v-39.79h-20.65l-32.85,24.41L62.44,157.34l17.13-12.82c-31.34-1.08-56.4-26.82-56.4-58.42s26.17-58.46,58.46-58.46c13.06,0,25.13,4.28,34.86,11.52h436.92v200.87l-59.36,80.79v34.3h59.36"/>
  <path id="_路徑_木地板" class="st11" d="M504.93,39.16v188.78l-39.08,53.09h-249.9l-91.28-122.84-25.7,19.1-22.53-30.43,3.13-2.34c-1.49-.05-2.96-.16-4.42-.32l.14-1.14c-10.19-1.3-19.84-5.36-27.9-11.73l11.46-14.52c16.49,13.05,40.43,10.26,53.48-6.23,13.04-16.47,10.27-40.39-6.18-53.45l-.47-.39,10.14-13.23.67-4.35h388.44Z"/>
  <polygon class="st6" points="267.4 115.25 182.47 115.25 84.98 187.68 228.94 381.42 261.79 357 267.4 357.01 267.4 115.25"/>
  <rect class="st0" x="267.4" y="39.16" width="175.11" height="156.41"/>
  <polygon class="st3" points="494.05 320.83 494.05 355.13 384.64 355.13 384.64 281.04 465.85 281.04 504.93 227.94 542.18 255.31 494.05 320.83"/>
  <rect class="st2" x="267.4" y="195.91" width="175.11" height="85.13"/>
  <polygon class="st4" points="29.35 112.3 32.17 117.3 35.46 121.99 39.2 126.34 43.35 130.31 47.87 133.85 52.71 136.93 57.83 139.51 63.18 141.59 68.71 143.13 74.36 144.12 80.08 144.55 85.82 144.42 91.52 143.73 97.12 142.48 102.57 140.69 107.82 138.37 112.82 135.56 117.51 132.26 121.87 128.52 125.83 124.37 129.37 119.85 132.45 115.01 135.04 109.89 137.11 104.54 138.65 99.01 139.64 93.36 140.07 87.64 139.94 81.9 139.25 76.2 138 70.6 136.21 65.15 133.9 59.9 131.08 54.9 127.78 50.21 124.04 45.85 119.89 41.89 115.37 38.35 110.53 35.27 105.41 32.68 100.06 30.61 94.53 29.07 88.88 28.08 83.16 27.65 77.42 27.78 71.73 28.47 66.12 29.72 60.67 31.51 55.42 33.82 50.42 36.64 45.73 39.94 41.38 43.68 37.41 47.83 33.87 52.35 30.79 57.19 28.21 62.31 26.13 67.66 24.59 73.19 23.6 78.84 23.17 84.56 23.3 90.3 23.99 95.99 25.24 101.6 27.03 107.05 29.35 112.3"/>
  <rect class="st1" x="442.51" y="39.17" width="62.42" height="169.22"/>
  <g class="st5">
    <path class="st7" d="M334.97,73.64h13.04v1.07h-13.04v-1.07ZM335.66,64.68h11.61v1.07h-11.61v-1.07ZM336.33,68.96h10.34v1.07h-10.34v-1.07ZM339.62,62.41l.89-.6c.31.21.64.46.99.75.35.28.67.56.97.84.3.28.55.53.75.77l-.95.69c-.18-.22-.41-.48-.71-.77-.3-.29-.61-.58-.95-.88-.34-.3-.67-.56-.99-.8ZM340.86,65.54h1.18v8.66h-1.18v-8.66Z"/>
    <path class="st7" d="M352.31,68.72l.91.25c-.34.7-.79,1.35-1.35,1.94s-1.14,1.08-1.75,1.47c-.05-.06-.12-.13-.21-.21-.09-.08-.17-.17-.26-.26s-.17-.16-.25-.2c.6-.34,1.17-.77,1.7-1.28s.93-1.08,1.21-1.7ZM349.53,67.82h13.17v.91h-13.17v-.91ZM352.26,61.77l1.07.19c-.33.55-.74,1.09-1.23,1.62s-1.06,1.03-1.71,1.49c-.09-.12-.21-.24-.37-.36s-.3-.22-.44-.29c.62-.39,1.16-.83,1.62-1.31s.81-.93,1.06-1.35ZM354.66,69.9h.22l.17-.04.6.29c-.28.93-.68,1.72-1.21,2.4s-1.12,1.24-1.8,1.69c-.68.45-1.41.81-2.2,1.07-.04-.08-.09-.17-.17-.27-.07-.1-.15-.2-.23-.29-.08-.09-.16-.17-.24-.23.76-.23,1.46-.55,2.1-.94.64-.39,1.2-.88,1.68-1.46.48-.58.83-1.26,1.07-2.05v-.16ZM350.31,65.47h11.92v.91h-11.92v-.91ZM350.82,71.39l.69-.48c.23.17.47.35.71.56.24.21.46.42.67.63.21.21.38.4.5.56l-.72.56c-.12-.18-.28-.37-.49-.58-.21-.21-.43-.43-.67-.65-.23-.22-.47-.42-.7-.59ZM352.19,62.76h9.69v.86h-10.51l.82-.86ZM352.15,69.9h2.84v.79h-3.58l.75-.79ZM351.74,64.21h1.04v4.14h-1.04v-4.14ZM354.31,64.27h.98v4.09h-.98v-4.09ZM356.86,70.07h1.04c-.12.37-.24.76-.38,1.17-.14.41-.27.8-.4,1.17-.13.37-.26.7-.37.99h-1.01c.13-.31.26-.66.39-1.03.13-.38.26-.76.39-1.16.13-.4.25-.78.34-1.14ZM355.92,69.91h6.52v.88h-6.52v-.88ZM356.27,72.53h6.52v.88h-6.52v-.88ZM356.94,64.27h.97v4.09h-.97v-4.09ZM359.08,68.93h1.04v6.26h-1.04v-6.26ZM359.52,64.21h1.05v4.12h-1.05v-4.12Z"/>
    <path class="st7" d="M365.23,67.81c0-.08-.04-.18-.09-.31-.05-.13-.09-.27-.14-.41-.04-.14-.09-.26-.14-.36.17-.03.35-.12.54-.28.19-.16.41-.35.66-.58.13-.13.32-.33.58-.6.26-.27.56-.6.88-.98.32-.38.65-.79.99-1.24.34-.44.65-.89.94-1.35l1.1.48c-.47.64-.96,1.27-1.47,1.88-.51.61-1.03,1.18-1.56,1.71s-1.05,1.01-1.57,1.44v.04c-.14.07-.26.13-.36.19s-.19.12-.26.18-.1.12-.1.18ZM365.23,67.81v-.86s.8-.42.8-.42l9.34-.42c0,.15.03.32.05.51s.05.35.07.47c-1.46.08-2.72.15-3.78.2-1.06.06-1.95.11-2.67.15-.72.04-1.31.08-1.77.11-.46.04-.82.06-1.08.09-.26.02-.47.05-.61.08-.14.03-.26.06-.36.1ZM366.01,69.04h9.39v6.13h-1.17v-5.07h-7.11v5.1h-1.11v-6.16ZM366.56,73.33h8.23v1.07h-8.23v-1.07ZM372.15,63.99l.86-.58c.48.42.97.88,1.48,1.39.51.51.97,1.01,1.4,1.52.43.51.77.96,1.02,1.38l-.94.67c-.24-.41-.57-.87-.99-1.39s-.87-1.04-1.37-1.56-.99-1-1.47-1.43Z"/>
  </g>
  <g class="st5">
    <path class="st18" d="M177.6,237.88c.48-.17,1.04-.38,1.7-.63.65-.25,1.32-.52,1.99-.8l.2.96c-.6.26-1.21.53-1.83.79-.61.26-1.18.5-1.71.72l-.35-1.04ZM177.82,233.42h3.45v1.02h-3.45v-1.02ZM179.36,230.47h.96v12.24c0,.27-.03.48-.1.64-.07.15-.18.27-.34.36-.17.08-.38.13-.64.16-.26.03-.59.04-1,.03,0-.13-.04-.28-.1-.47-.06-.19-.12-.35-.19-.48.27,0,.52.01.74.01s.36,0,.43-.01c.16,0,.23-.08.23-.23v-12.24ZM183.41,234.07h.86v4.75c0,.74-.07,1.42-.2,2.05-.13.63-.4,1.2-.82,1.71-.41.51-1.05.95-1.91,1.32-.05-.1-.13-.22-.23-.36-.11-.14-.2-.25-.29-.33.76-.33,1.33-.72,1.7-1.16.37-.44.61-.94.72-1.48.11-.55.17-1.13.17-1.77v-4.74ZM181.14,240.34h5.23v.82h-5.23v-.82ZM181.2,231.68h5.37v.79h-5.37v-.79ZM181.52,238.64h4.66v.79h-4.66v-.79ZM181.58,235h4.56v2.85h-4.56v-2.85ZM182.14,230.44h.85v3.03h1.87v-3.03h.89v3.76h-3.61v-3.76ZM182.31,235.73v1.39h3.06v-1.39h-3.06ZM183.32,241.71l.54-.61c.28.17.57.36.87.57.3.21.58.43.84.64.26.21.48.41.64.6l-.57.7c-.17-.17-.38-.38-.64-.61-.26-.23-.54-.46-.83-.68s-.58-.43-.85-.61ZM187.65,230.46l.88.18c-.15.66-.32,1.31-.53,1.95-.21.64-.44,1.24-.7,1.8-.26.56-.54,1.06-.84,1.5-.05-.06-.11-.13-.2-.21-.08-.08-.17-.16-.25-.23-.08-.08-.16-.14-.24-.19.44-.58.82-1.31,1.13-2.16.32-.86.57-1.73.75-2.63ZM187.74,233.4h3.3v.95h-3.3v9.56h-.86v-10.03l.4-.48h.47ZM187.22,236.26h3.76v.88h-3.76v-.88ZM187.22,239.2h3.79v.85h-3.79v-.85ZM187.25,242.27h4.02v.85h-4.02v-.85ZM188.45,230.82l.77-.28c.22.38.44.8.64,1.26s.34.85.43,1.18l-.85.34c-.08-.34-.21-.75-.4-1.22-.19-.47-.39-.9-.59-1.28ZM188.93,233.75h.85v8.95h-.85v-8.95Z"/>
    <path class="st18" d="M195.98,230.51l1.04.31c-.32.83-.69,1.64-1.12,2.45-.42.8-.88,1.56-1.38,2.27-.5.71-1.01,1.34-1.54,1.89-.04-.09-.09-.2-.17-.34-.07-.14-.15-.28-.23-.42-.08-.14-.16-.25-.23-.33.48-.48.94-1.03,1.39-1.65s.86-1.29,1.25-2.01c.39-.72.71-1.44.99-2.17ZM194.43,234.27l1.08-1.08h.01v10.69h-1.1v-9.61ZM196.57,242.24h9.2v1.05h-9.2v-1.05ZM197.2,233.12h7.97v1.07h-7.97v-1.07ZM198.16,235.3l.99-.23c.13.52.25,1.06.36,1.62.11.57.22,1.13.31,1.68.1.56.18,1.08.25,1.58.07.5.12.93.16,1.3l-1.08.32c-.03-.39-.08-.84-.14-1.34s-.14-1.04-.23-1.61-.19-1.13-.3-1.7-.21-1.11-.32-1.62ZM200.13,230.63l1.04-.28c.14.36.27.75.42,1.18.14.42.25.79.33,1.1l-1.1.32c-.06-.31-.15-.69-.29-1.12-.13-.44-.27-.84-.4-1.2ZM203.12,234.96l1.15.19c-.11.6-.22,1.24-.35,1.92-.13.67-.26,1.35-.41,2.02-.15.67-.29,1.31-.45,1.92-.15.61-.3,1.16-.45,1.64l-.96-.22c.15-.5.29-1.06.43-1.67.14-.62.28-1.27.41-1.95.13-.68.25-1.35.36-2.02.11-.66.19-1.27.26-1.83Z"/>
    <path class="st18" d="M207.28,231.13h12.34v.99h-12.34v-.99ZM207.88,231.2h1.07v9.23c0,.42.07.76.21,1.02.14.26.37.45.68.57s.74.18,1.27.18h6.61c.27,0,.56,0,.87-.02.31-.01.6-.03.89-.05s.52-.05.69-.09c0,.1.02.21.04.35s.04.27.07.39c.02.13.05.23.07.32-.14.03-.34.05-.61.07s-.58.03-.94.04c-.35,0-.72,0-1.1,0h-6.49c-.75,0-1.37-.09-1.86-.27s-.86-.48-1.1-.9c-.24-.42-.37-.98-.37-1.7v-9.15ZM210.12,237.31h3.83v3.77h-3.83v-3.77ZM211.04,238.13v2.16h1.96v-2.16h-1.96ZM211.71,233.06h5.48v3.28h-5.48v-3.28ZM212.75,233.85v1.7h3.35v-1.7h-3.35ZM214.94,237.31h3.96v3.77h-3.96v-3.77ZM215.89,238.13v2.16h2.03v-2.16h-2.03Z"/>
  </g>
  <g class="st5">
    <path class="st14" d="M445.21,304.33h1.1v4.3c0,.61-.02,1.29-.06,2.02-.04.73-.12,1.48-.23,2.24-.12.76-.29,1.5-.52,2.22-.23.72-.53,1.38-.91,1.99-.08-.06-.18-.12-.29-.2-.12-.07-.24-.14-.36-.21-.12-.07-.23-.12-.33-.16.37-.58.66-1.2.88-1.87.21-.67.37-1.36.48-2.07.1-.71.17-1.4.2-2.07.03-.67.05-1.3.05-1.89v-4.3ZM445.85,304.33h10.31v3.41h-10.31v-.96h9.21v-1.49h-9.21v-.95ZM446.38,311.7h10.66v.96h-10.66v-.96ZM446.79,309.23h9.66v.94h-9.66v-.94ZM447.73,317.09c-.02-.09-.06-.19-.11-.31s-.11-.23-.17-.34c-.06-.11-.12-.2-.17-.27.14-.08.29-.21.46-.39.17-.18.26-.43.26-.75v-2.88l1.04.03v3.71c-.18.12-.33.22-.46.31-.13.09-.26.19-.39.29-.13.11-.23.21-.32.32-.09.11-.13.2-.13.28ZM447.73,317.08l-.04-.83.48-.39,4.02-.89c-.02.14-.03.29-.04.47,0,.18,0,.32,0,.43-.93.23-1.66.42-2.21.56s-.97.25-1.26.33c-.29.08-.5.15-.64.2-.13.05-.23.09-.3.13ZM449,307.87h1.01v4.37h-1.01v-4.37ZM451.81,312.06c.43,1.06,1.1,1.95,2.02,2.65s2.04,1.2,3.37,1.47c-.12.11-.24.25-.37.42-.13.17-.22.34-.29.48-1.38-.35-2.55-.93-3.5-1.74-.95-.81-1.67-1.83-2.16-3.06l.92-.23ZM455.43,312.73l.83.58c-.4.31-.85.61-1.34.91-.49.29-.94.54-1.35.75l-.7-.54c.26-.15.55-.32.87-.51s.62-.39.92-.6c.3-.2.55-.4.77-.58ZM452.95,307.87h1.04v4.34h-1.04v-4.34Z"/>
    <path class="st14" d="M461.1,310.85l1.16.29c-.23.59-.51,1.18-.83,1.76-.32.58-.66,1.12-1.02,1.62-.36.5-.73.94-1.1,1.32-.08-.07-.18-.15-.31-.23-.13-.09-.25-.17-.38-.26s-.24-.15-.34-.2c.57-.52,1.11-1.16,1.61-1.92.5-.76.9-1.55,1.2-2.38ZM458.65,308.16h12.89v1.1h-12.89v-1.1ZM459.98,304.66h10.28v1.1h-10.28v-1.1ZM464.44,308.57h1.16v8.44h-1.16v-8.44ZM468.03,311.24l1.01-.44c.37.45.73.94,1.08,1.48s.67,1.06.96,1.58c.29.52.5.98.65,1.4l-1.11.48c-.14-.4-.34-.86-.61-1.39-.27-.53-.58-1.06-.92-1.61-.35-.55-.7-1.05-1.06-1.51Z"/>
    <path class="st14" d="M473.25,304.3h12.34v.99h-12.34v-.99ZM473.85,304.37h1.07v9.23c0,.42.07.76.21,1.02.14.26.37.45.68.57.31.12.74.18,1.27.18h6.61c.27,0,.56,0,.87-.02s.6-.03.89-.05c.29-.02.52-.05.69-.09,0,.1.02.21.04.35s.04.27.07.39c.02.13.05.23.07.32-.14.03-.34.05-.61.07-.27.02-.58.03-.94.04-.35,0-.72,0-1.1,0h-6.49c-.75,0-1.37-.09-1.86-.27s-.86-.48-1.1-.9c-.24-.42-.37-.98-.37-1.7v-9.15ZM476.09,310.48h3.83v3.77h-3.83v-3.77ZM477.01,311.3v2.16h1.96v-2.16h-1.96ZM477.68,306.23h5.48v3.28h-5.48v-3.28ZM478.72,307.02v1.7h3.35v-1.7h-3.35ZM480.91,310.48h3.96v3.77h-3.96v-3.77ZM481.86,311.3v2.16h2.03v-2.16h-2.03Z"/>
  </g>
  <g class="st5">
    <path class="st10" d="M334.04,235.86h.5s.5.18.5.18c-.22,1.53-.6,2.82-1.13,3.86-.53,1.04-1.17,1.85-1.92,2.41-.05-.08-.12-.16-.21-.26l-.28-.28c-.09-.09-.18-.16-.26-.21.71-.51,1.31-1.22,1.8-2.15.49-.93.82-2.05,1.01-3.36v-.19ZM331.73,236.97c0-.09-.04-.19-.09-.32s-.11-.25-.16-.38c-.05-.13-.1-.23-.15-.31.12-.03.23-.08.35-.14.12-.06.23-.16.35-.29.11-.12.26-.31.46-.58.2-.27.42-.57.64-.91.23-.33.45-.66.65-.97.21-.32.37-.57.48-.75v-.04l.32-.15.75.32c-.17.25-.38.55-.61.88-.23.34-.47.68-.72,1.04-.25.36-.5.71-.75,1.04-.25.33-.48.61-.68.85-.17.09-.3.17-.42.24s-.21.15-.29.23c-.08.08-.12.16-.12.23ZM331.48,232.22h3.17v.92h-3.17v-.92ZM331.73,236.97v-.85l.53-.26h2.33v.89h-1.97c-.19,0-.36.02-.53.07s-.29.09-.34.15ZM331.96,229.31l.85-.45c.31.36.63.75.94,1.18.32.42.56.79.74,1.1l-.89.54c-.11-.21-.25-.46-.43-.73-.18-.27-.38-.55-.59-.84-.21-.29-.42-.55-.61-.8ZM334.1,238.92c.3.64.71,1.12,1.24,1.43.52.31,1.16.51,1.91.61.75.09,1.61.14,2.59.15.52,0,1.08,0,1.69-.03.61-.02,1.22-.04,1.83-.07.61-.02,1.17-.06,1.67-.11-.06.08-.11.18-.15.3-.04.12-.09.25-.12.39s-.07.25-.09.35c-.46.02-.96.04-1.5.07s-1.1.04-1.67.04c-.57,0-1.13,0-1.67,0-.86,0-1.62-.03-2.3-.1-.68-.07-1.28-.2-1.8-.39s-.97-.48-1.36-.85c-.39-.37-.71-.86-.99-1.46l.73-.34ZM336.28,231.27h.92v2.12c0,.49-.02,1.01-.06,1.58-.04.57-.12,1.14-.24,1.73-.12.59-.3,1.17-.53,1.73-.23.57-.53,1.1-.9,1.59-.06-.07-.13-.14-.21-.22s-.17-.15-.26-.23c-.09-.07-.17-.13-.25-.17.34-.46.61-.95.82-1.47.2-.52.36-1.05.46-1.58.1-.53.17-1.05.2-1.56.03-.51.04-.99.04-1.43v-2.1ZM335.01,230.83h4.85v.94h-4.85v-.94ZM336.58,229.07l.96-.21c.15.31.29.65.45,1.01.15.36.26.67.33.94l-.99.25c-.08-.27-.18-.59-.32-.96s-.28-.71-.42-1.02ZM338.63,233.42h.95v.45c-.05,1.02-.09,1.89-.12,2.6-.04.71-.08,1.29-.13,1.74s-.11.8-.18,1.06c-.06.26-.14.44-.24.55-.09.14-.19.23-.31.29s-.27.1-.45.13c-.14,0-.31.01-.52.01s-.43,0-.65-.01c0-.14-.04-.29-.08-.47-.04-.18-.1-.32-.17-.44.21,0,.41.02.58.02.18,0,.31,0,.41,0,.08.01.15,0,.21-.02.06-.02.11-.07.15-.14.09-.12.16-.36.23-.74s.12-.95.17-1.73c.05-.78.1-1.82.14-3.13v-.19ZM336.79,233.42h2.24v.94h-2.24v-.94ZM341.03,228.79l.94.23c-.14.53-.3,1.05-.49,1.56-.19.52-.4,1-.62,1.46-.22.46-.47.86-.73,1.21-.06-.07-.14-.14-.23-.21-.1-.07-.2-.14-.29-.21-.1-.07-.19-.13-.26-.18.39-.49.73-1.07,1.02-1.75.29-.68.51-1.39.68-2.12ZM339.89,235.63h4.93v.91h-4.93v-.91ZM341.89,234.62h.95v4.52c0,.24-.03.44-.09.58-.06.15-.18.26-.37.34-.17.08-.4.13-.69.15-.28.02-.63.03-1.04.03-.02-.14-.06-.29-.12-.46-.06-.17-.13-.32-.21-.46.31,0,.59.01.84.01s.42,0,.5-.01c.15,0,.22-.06.22-.18v-4.52ZM340.47,232.66h3.41v.85h-3.41v-.85ZM340.58,230.5h4.25v.94h-4.25v-.94ZM343.57,232.66h.23l.19-.06.61.45c-.3.39-.65.78-1.05,1.16-.39.39-.77.71-1.13.99-.07-.1-.16-.2-.26-.31-.11-.11-.2-.2-.28-.28.31-.22.63-.51.94-.85.32-.34.56-.65.74-.94v-.18Z"/>
    <path class="st10" d="M346.73,231.29h.94v4.09c0,.49-.01,1.02-.04,1.6s-.07,1.17-.15,1.78-.18,1.19-.32,1.76c-.14.57-.32,1.09-.55,1.57-.06-.06-.13-.13-.23-.21s-.19-.15-.29-.23c-.1-.07-.19-.12-.26-.15.27-.59.47-1.25.6-1.97.13-.72.21-1.44.24-2.16.03-.73.05-1.39.05-2v-4.09ZM347.17,231.29h6.27v.79h-6.27v-.79ZM347.71,241.23c.5-.04,1.07-.09,1.73-.15.66-.06,1.35-.12,2.09-.18.74-.06,1.48-.13,2.23-.21v.82c-1.07.11-2.13.21-3.17.31s-1.96.19-2.76.27l-.12-.86ZM347.97,233.23l4.24-.41.09.64-4.24.42-.09-.66ZM348.13,235.63h5.77v.76h-5.77v-.76ZM348.5,236.99h4.91v2.3h-4.91v-2.3ZM349.04,239.56l.79-.15c.12.27.23.57.34.9.11.33.18.61.23.84l-.82.19c-.05-.24-.12-.53-.23-.86-.1-.33-.21-.64-.31-.92ZM349.36,237.63v1.02h3.14v-1.02h-3.14ZM349.57,228.85h1.02v2.79h-1.02v-2.79ZM349.77,232.05h.92v1.94c0,.18.02.29.06.35.04.06.13.09.26.09h1.4c.13,0,.28,0,.46,0,.18,0,.32-.02.42-.05,0,.12.02.23.03.34,0,.11.02.22.04.33-.09.02-.22.04-.39.05-.17.01-.34.02-.52.02h-1.67c-.28,0-.5-.04-.64-.12s-.25-.2-.3-.37c-.05-.17-.08-.39-.08-.65v-1.93ZM350.06,229.74h3.64v.79h-3.64v-.79ZM351.98,239.36l.94.17c-.15.32-.3.64-.47.96-.17.32-.33.6-.48.83l-.75-.18c.14-.25.28-.55.42-.9.15-.35.26-.65.34-.9ZM353.15,231.29h.15l.16-.03.66.15c-.08.36-.17.73-.28,1.12-.11.38-.21.71-.31.99l-.8-.19c.07-.24.14-.54.22-.88s.15-.68.21-1v-.15ZM358.47,234.31l.83.44c-.28.95-.66,1.87-1.14,2.79s-1.03,1.74-1.65,2.5c-.62.75-1.29,1.37-2,1.83-.09-.12-.21-.25-.36-.4-.15-.15-.29-.26-.43-.35.72-.43,1.39-1,2.01-1.71.62-.71,1.17-1.51,1.64-2.4s.84-1.79,1.1-2.7ZM353.97,233.22l5.41-.7.12.96-5.38.7-.15-.96ZM355.12,228.92h1.02c.02,1.31.06,2.56.12,3.75.06,1.19.15,2.3.26,3.3s.25,1.89.4,2.64c.15.75.33,1.34.53,1.75.2.42.42.64.65.66.14,0,.25-.19.34-.58s.16-.93.21-1.63c.07.07.15.14.25.22.1.08.2.15.3.21.1.06.18.12.24.15-.09.75-.2,1.34-.35,1.76-.15.42-.3.72-.48.88-.17.16-.34.24-.52.24-.44,0-.82-.24-1.14-.69-.32-.45-.59-1.08-.82-1.89-.22-.81-.4-1.77-.54-2.88s-.24-2.33-.32-3.66c-.08-1.33-.13-2.75-.16-4.24ZM356.85,229.53l.82-.41c.2.25.41.53.62.83.21.3.41.58.6.86.19.27.34.51.46.72l-.86.48c-.11-.2-.26-.45-.45-.74-.19-.29-.39-.58-.58-.88-.2-.3-.4-.58-.61-.85Z"/>
    <path class="st10" d="M360.91,229.52h12.34v.99h-12.34v-.99ZM361.51,229.59h1.07v9.23c0,.42.07.76.21,1.02.14.26.37.45.68.57.31.12.74.18,1.27.18h6.61c.27,0,.56,0,.87-.02.31-.01.6-.03.89-.05.29-.02.52-.05.69-.09,0,.1.02.21.04.35s.04.27.07.39.05.23.07.32c-.14.03-.34.05-.61.07-.27.02-.58.03-.94.04-.35,0-.72,0-1.1,0h-6.49c-.75,0-1.37-.09-1.86-.27s-.86-.48-1.1-.9c-.24-.42-.37-.98-.37-1.7v-9.15ZM363.75,235.7h3.83v3.77h-3.83v-3.77ZM364.67,236.52v2.16h1.96v-2.16h-1.96ZM365.34,231.45h5.48v3.28h-5.48v-3.28ZM366.38,232.24v1.7h3.35v-1.7h-3.35ZM368.57,235.7h3.96v3.77h-3.96v-3.77ZM369.52,236.52v2.16h2.03v-2.16h-2.03Z"/>
  </g>
  <g class="st5">
    <path class="st8" d="M455.04,133.69h13.14v1.1h-13.14v-1.1ZM455.8,124.12h11.64v1.13h-11.64v-1.13ZM460.95,124.69h1.21v9.46h-1.21v-9.46Z"/>
    <path class="st8" d="M469.41,132.61c.44-.14.93-.3,1.48-.5.55-.19,1.14-.4,1.75-.63.62-.22,1.24-.45,1.85-.67l.2,1.01c-.88.34-1.75.68-2.63,1.02-.88.34-1.67.64-2.38.91l-.28-1.14ZM469.67,126.14h4.69v1.05h-4.69v-1.05ZM471.55,122.66h1.05v9.72h-1.05v-9.72ZM476.74,125.61h1.1v2.49c0,.61-.04,1.26-.12,1.94-.08.68-.25,1.37-.51,2.05-.26.69-.64,1.35-1.14,2s-1.17,1.25-2.01,1.82c-.1-.12-.22-.25-.38-.39s-.31-.26-.45-.36c.79-.54,1.42-1.11,1.89-1.71s.82-1.22,1.06-1.84c.24-.62.39-1.24.47-1.84s.11-1.17.11-1.71v-2.46ZM474.29,125.02h8.63v1.05h-8.63v-1.05ZM477.26,128.39h4.12v1.04h-4.12v-1.04ZM477.79,122.63l1.04-.23c.14.35.28.73.42,1.15.14.41.25.76.31,1.03l-1.07.31c-.07-.29-.17-.65-.3-1.08-.13-.42-.27-.82-.4-1.18ZM481.05,128.39h1.1c0,.13-.01.23-.01.31s0,.15-.01.21c-.04,1.07-.08,1.98-.13,2.73-.05.75-.11,1.37-.17,1.86-.06.49-.14.88-.22,1.16-.08.28-.18.49-.3.63-.13.18-.27.29-.44.36-.17.06-.37.1-.61.12-.21.02-.51.03-.88.03s-.76-.01-1.17-.04c0-.17-.05-.35-.11-.55-.06-.2-.14-.38-.24-.53.42.04.81.06,1.18.07s.62.01.77.01c.14,0,.25-.01.34-.04.09-.02.17-.07.23-.14.12-.12.22-.39.3-.81.08-.42.16-1.05.22-1.89.06-.84.12-1.94.17-3.32v-.19Z"/>
    <path class="st8" d="M484.38,123.14h12.34v.99h-12.34v-.99ZM484.98,123.21h1.07v9.23c0,.42.07.76.21,1.02.14.26.37.45.68.57.31.12.74.18,1.27.18h6.61c.27,0,.56,0,.87-.02s.6-.03.89-.05c.29-.02.52-.05.69-.09,0,.1.02.21.04.35s.04.27.07.39c.02.13.05.23.07.32-.14.03-.34.05-.61.07-.27.02-.58.03-.94.04-.35,0-.72,0-1.1,0h-6.49c-.75,0-1.37-.09-1.86-.27s-.86-.48-1.1-.9c-.24-.42-.37-.98-.37-1.7v-9.15ZM487.22,129.32h3.83v3.77h-3.83v-3.77ZM488.14,130.14v2.16h1.96v-2.16h-1.96ZM488.81,125.07h5.48v3.28h-5.48v-3.28ZM489.85,125.86v1.7h3.35v-1.7h-3.35ZM492.04,129.32h3.96v3.77h-3.96v-3.77ZM492.99,130.14v2.16h2.03v-2.16h-2.03Z"/>
  </g>
  <g class="st5">
    <path class="st15" d="M84.08,90.89h1.01v9.58h-1.01v-9.58ZM84.71,90.89h3.27v8.17h-3.27v-1.02h2.24v-6.12h-2.24v-1.02ZM89.27,90.45h1.07v10.19c0,.27.03.48.09.63s.17.25.33.3.4.08.72.08h3.48c.29,0,.51-.06.65-.17.14-.12.24-.33.31-.63s.11-.73.14-1.29c.14.1.3.19.5.26.19.08.37.13.53.16-.06.67-.15,1.2-.28,1.59-.13.39-.33.67-.6.84s-.67.26-1.18.26h-3.6c-.55,0-.97-.06-1.29-.17s-.53-.32-.67-.61c-.13-.3-.2-.72-.2-1.26v-10.17ZM89.75,96.19h6.07v.99h-6.07v-.99ZM89.8,90.45h6.7v7.67h-1.08v-6.65h-5.61v-1.02ZM92.34,90.81h1.01v5.7h-1.01v-5.7Z"/>
    <path class="st15" d="M99.4,95.55c0-.08-.04-.18-.09-.31-.05-.13-.1-.27-.14-.41-.04-.14-.09-.26-.14-.36.17-.03.35-.12.54-.28.19-.16.41-.35.66-.58.13-.13.32-.33.58-.6.26-.27.56-.6.88-.98.32-.38.65-.79.99-1.24.34-.44.65-.89.94-1.35l1.1.48c-.47.64-.96,1.27-1.47,1.88-.51.61-1.03,1.18-1.56,1.71-.53.53-1.06,1.01-1.57,1.44v.04c-.14.07-.26.13-.36.19-.1.06-.19.12-.26.18s-.1.12-.1.18ZM99.4,95.55v-.86s.8-.42.8-.42l9.34-.42c0,.15.03.32.05.51s.05.35.07.47c-1.46.08-2.72.15-3.78.2-1.06.06-1.95.11-2.67.15s-1.31.08-1.77.11c-.46.04-.82.06-1.08.09s-.47.05-.61.08-.26.06-.36.1ZM100.18,96.78h9.39v6.13h-1.17v-5.07h-7.11v5.1h-1.11v-6.16ZM100.73,101.07h8.23v1.07h-8.23v-1.07ZM106.32,91.73l.86-.58c.48.42.97.88,1.48,1.39.51.51.97,1.01,1.4,1.52.43.51.77.96,1.02,1.38l-.94.67c-.24-.41-.57-.87-.99-1.39-.41-.52-.87-1.04-1.37-1.56s-.99-1-1.47-1.43Z"/>
  </g>
  <rect class="st9" x="271.86" y="169.05" width="23.26" height="23.73"/>
  <rect class="st9" x="414.32" y="169.05" width="23.26" height="23.73"/>
  <rect class="st9" x="315.8" y="324.58" width="68.84" height="30.54"/>
  <path class="st16" d="M553.41,397.49l-76.75-.2v33.5h-79.27v-33.7l-114.95-.3v-39.79h-20.65l-32.85,24.41L62.44,157.34l17.13-12.82c-31.34-1.08-56.4-26.82-56.4-58.42s26.17-58.46,58.46-58.46c13.06,0,25.13,4.28,34.86,11.52h436.92v200.87l-59.36,80.79v34.3h59.36"/>
  <g class="st5">
    <path class="st13" d="M425,419.89h3.64v.54h-3.64v-.54ZM425,423.09h3.65v.54h-3.65v-.54ZM425.19,421.62h3.3v.54h-3.3v-.54ZM425.25,418.52h3.18v.54h-3.18v-.54ZM425.57,420.61l.46-.14c.1.16.19.33.27.52s.14.36.16.49l-.49.17c-.03-.14-.08-.31-.15-.51-.08-.2-.16-.38-.25-.53ZM426.58,417.66h.58v2.42h-.58v-2.42ZM426.58,421.84h.58v3.47h-.58v-3.47ZM427.67,420.44l.54.15c-.12.23-.24.47-.37.71-.13.24-.26.45-.38.63l-.47-.14c.08-.12.17-.26.25-.42.08-.16.16-.32.24-.48.08-.17.14-.31.19-.45ZM428.96,418.04h2.98v.57h-2.39v6.72h-.59v-7.29ZM429.26,420.88h2.74v.52h-2.74v-.52ZM431.81,420.88h.11l.11-.02.39.14c-.11.6-.28,1.18-.51,1.73s-.52,1.05-.87,1.5c-.35.45-.75.83-1.22,1.13-.05-.07-.12-.15-.2-.23-.08-.08-.16-.15-.23-.2.44-.27.83-.62,1.15-1.03.33-.42.6-.87.81-1.37.21-.5.36-1,.45-1.51v-.14ZM430.08,421.17c.15.52.35,1.01.61,1.49s.55.89.9,1.26c.35.37.73.65,1.15.85-.07.06-.15.14-.23.24-.08.1-.15.19-.2.28-.43-.25-.82-.57-1.17-.97-.35-.4-.65-.86-.91-1.38-.26-.52-.47-1.06-.63-1.64l.49-.13ZM431.63,418.04h.58v1.61c0,.16-.02.28-.06.37-.04.09-.13.16-.25.21-.13.04-.3.07-.51.08-.21,0-.49.01-.82.01-.01-.08-.03-.18-.07-.28-.04-.1-.08-.19-.12-.27.18,0,.34,0,.49.01.15,0,.27,0,.38,0s.18,0,.22,0c.07,0,.12-.02.14-.03s.03-.05.03-.09v-1.61Z"/>
    <path class="st13" d="M433.49,424.32c.35-.06.76-.12,1.23-.2.47-.08.96-.17,1.49-.27.52-.1,1.05-.19,1.57-.29l.03.55c-.5.1-1,.19-1.5.29-.5.1-.98.19-1.44.28-.46.09-.87.17-1.24.24l-.14-.6ZM433.56,418.21h4.3v.55h-4.3v-.55ZM433.96,421.01s-.03-.1-.05-.18c-.02-.07-.05-.15-.08-.22-.03-.08-.06-.14-.08-.2.07-.01.13-.05.2-.12.07-.07.13-.15.2-.25.05-.07.13-.19.24-.36s.23-.38.35-.62c.12-.24.23-.48.32-.72l.61.25c-.12.25-.26.5-.4.75s-.3.49-.46.71c-.16.23-.32.43-.47.61v.02c-.08.04-.14.08-.19.11-.05.03-.09.07-.13.11s-.06.08-.06.11ZM433.78,422.02h3.91v.56h-3.91v-.56ZM433.96,421.01v-.45s.32-.2.32-.2l2.81-.24c.04.08.08.17.13.26.05.09.09.17.13.23-.57.06-1.05.1-1.43.14-.39.04-.7.07-.94.09-.24.02-.42.04-.56.06s-.24.04-.3.05c-.07.01-.12.03-.16.05ZM435.43,421.12h.59v3.24h-.59v-3.24ZM436.14,419.3l.46-.27c.16.19.32.39.48.61.16.22.32.43.46.64.14.21.25.39.33.55l-.48.32c-.08-.16-.19-.35-.32-.56-.14-.21-.29-.44-.45-.66-.16-.23-.32-.43-.48-.62ZM438.33,418.37h.58v5.07h-.58v-5.07ZM439.98,417.79h.61v6.58c0,.2-.03.34-.08.45-.05.1-.14.18-.27.23-.13.05-.3.08-.52.1-.22.02-.48.03-.79.03-.01-.09-.04-.2-.09-.32-.05-.12-.1-.23-.15-.31.25,0,.47,0,.68.01s.35,0,.42,0c.07,0,.12-.01.15-.04s.04-.07.04-.15v-6.58Z"/>
    <path class="st13" d="M442.37,419.2h.59v2.06c0,.29-.01.62-.03.97-.02.35-.06.72-.12,1.09s-.14.73-.25,1.08c-.11.35-.25.67-.44.97-.03-.04-.07-.08-.13-.13-.06-.05-.12-.1-.19-.14-.06-.04-.12-.08-.16-.1.16-.27.29-.57.39-.89s.17-.65.22-.98c.05-.33.08-.66.1-.97s.03-.62.03-.89v-2.05ZM445.2,422.04h.1l.1-.02.33.09c-.12.61-.31,1.13-.58,1.56-.26.43-.58.78-.94,1.06-.37.28-.78.49-1.24.65-.02-.06-.06-.14-.12-.23s-.11-.16-.16-.21c.41-.13.78-.31,1.12-.55s.63-.55.87-.92.41-.82.52-1.33v-.09ZM442.7,419.2h6.06v.5h-6.06v-.5ZM444.08,421.37l.5.12c-.15.45-.35.87-.61,1.26-.25.39-.53.72-.83.99-.03-.03-.06-.07-.11-.12-.04-.04-.09-.09-.14-.14-.05-.05-.09-.09-.13-.12.29-.24.55-.53.78-.88s.41-.72.54-1.12ZM443.41,420.35l4.41-.28.03.42-4.42.29-.03-.43ZM443.98,422.51c.12.47.29.85.49,1.13s.45.51.73.66.59.26.94.31.71.08,1.11.08h1.85c.15,0,.26,0,.33,0-.04.07-.09.15-.13.26-.04.11-.07.2-.08.27h-2c-.46,0-.89-.03-1.27-.1s-.73-.19-1.03-.37c-.3-.18-.57-.44-.8-.77-.23-.33-.42-.77-.56-1.31l.42-.16ZM444,422.04h1.36v.47h-1.36v-.47ZM445.11,417.65h.62v1.82h-.62v-1.82ZM445.11,419.59h.59v1.23c0,.12.02.2.06.24s.13.07.28.07h1.95c.08,0,.18,0,.3,0s.22,0,.33-.02c.1-.01.19-.02.25-.03.01.08.02.16.03.24,0,.08.02.16.03.23-.08.02-.2.03-.36.03-.16,0-.34,0-.51,0h-2.06c-.23,0-.41-.03-.54-.08-.13-.05-.21-.13-.26-.25-.05-.12-.07-.27-.07-.45v-1.22ZM445.38,418.18h3.22v.48h-3.22v-.48ZM446.22,422.03h.52v.69c0,.18-.02.38-.06.58s-.12.4-.23.59c-.11.19-.28.37-.49.53-.02-.03-.06-.07-.11-.12-.05-.04-.1-.09-.15-.14-.05-.05-.09-.08-.13-.1.28-.21.46-.43.54-.68s.12-.48.12-.69v-.66ZM446.5,422.03h1.45v.49h-1.45v-.49ZM447.6,422.03h.48v1.67c0,.08,0,.13.03.15s.05.03.11.03h.33s.08-.03.1-.1c.02-.07.04-.22.05-.45.05.04.11.07.19.1.08.02.14.05.21.06-.01.29-.05.49-.13.59-.07.1-.19.16-.35.16h-.48c-.21,0-.35-.04-.42-.11s-.11-.22-.11-.43v-1.66ZM448.56,419.2h.1l.1-.03.44.12c-.08.24-.18.48-.28.74-.1.25-.2.46-.3.63l-.53-.16c.08-.16.16-.35.25-.57.09-.22.16-.44.21-.64v-.09Z"/>
  </g>
  <g id="_入口">
    <g class="st5">
      <path class="st13" d="M567.96,375.53l.89.16c-.25,1.06-.58,2.01-.98,2.86-.4.85-.88,1.6-1.45,2.24-.57.64-1.24,1.19-2.01,1.64-.04-.06-.11-.12-.19-.2-.09-.08-.18-.16-.27-.24s-.18-.14-.25-.19c1.16-.61,2.08-1.44,2.77-2.49.68-1.05,1.18-2.31,1.49-3.79ZM565.71,373.48h2.96v.79h-2.96v-.79ZM568.27,373.48h.79c0,.31.01.67.04,1.09.03.42.09.87.18,1.34.09.48.23.97.42,1.49.19.52.44,1.03.76,1.54.32.51.72,1.01,1.21,1.49.48.48,1.07.92,1.76,1.33-.06.05-.13.11-.21.19s-.17.16-.24.25c-.07.09-.13.16-.18.22-.7-.42-1.29-.89-1.79-1.4-.5-.51-.91-1.04-1.24-1.6-.33-.56-.6-1.12-.79-1.68-.2-.56-.35-1.1-.45-1.63-.1-.53-.17-1.01-.2-1.47-.03-.45-.05-.84-.05-1.16Z"/>
      <path class="st13" d="M575.1,373.94h7.83v8.21h-.85v-7.42h-6.17v7.46h-.81v-8.25ZM575.46,380.5h7.19v.8h-7.19v-.8Z"/>
    </g>
    <polygon class="st12" points="560.56 373.06 556.57 377.29 560.56 381.52 560.56 373.06"/>
  </g>
  <line class="st16" x1="311.6" y1="355.13" x2="494.05" y2="355.13"/>
</svg>